# xmcd
#
# Track frame offsets: 
#        150
#        24675
#        47400
#        66750
#        91237
#        109237
#        127747
#        143287
#        157462
#        176250
#        203700
#        223112
#
# Disc length: 3228 seconds
#
# Revision: 4
# Processed by: cddbd v1.5.2PL0 Copyright (c) Steve Scherf et al.
# Submitted via: ExactAudioCopy v0.99pb4
#
DISCID=a00c9a0c
DTITLE=Mark Hummel - Low Down To Uptown
DYEAR=1998
DGENRE=Blues
TTITLE0=I'm Hooked
TTITLE1=Ooh La La
TTITLE2=T'ain't What You Say
TTITLE3=Po' Man's Shoe Shine
TTITLE4=Ease My Mind
TTITLE5=Let It Happen
TTITLE6=Keep A'talkin'
TTITLE7=Lucky Kind Of Fella
TTITLE8=Underhanded Woman
TTITLE9=West Coast Flood
TTITLE10=Now Or Never
TTITLE11=In A Sentimental Mood
EXTD=YEAR: 1998 ID3G:   0
EXTT0=
EXTT1=
EXTT2=
EXTT3=
EXTT4=
EXTT5=
EXTT6=
EXTT7=
EXTT8=
EXTT9=
EXTT10=
EXTT11=
PLAYORDER=
